<?xml version="1.0" standalone="no"?><svg xmlns:xlink="http://www.w3.org/1999/xlink" xmlns="http://www.w3.org/2000/svg" viewBox="0 0 1000 200" preserveAspectRatio="xMaxYMax slice"><g transform="scale(0.46511627906976744)"><rect x="0" y="0" width="2150" height="430" fill="#ffffff"/><rect x="0" y="0" width="143.33" height="143.33" fill="#829595"/><polygon points="0,0 143.33,0 0,143.33" fill="#99b3ba"/><rect x="143.33" y="0" width="143.33" height="143.33" fill="#e9eff0"/><polygon points="143.33,0 286.66,143.33 143.33,143.33" fill="#fcfdfd"/><rect x="286.67" y="0" width="143.33" height="143.33" fill="#3d5a5b"/><polygon points="286.67,0 430,0 430,143.33" fill="#f1f5f5"/><rect x="430" y="0" width="143.33" height="143.33" fill="#b9cacf"/><polygon points="430,0 573.33,143.33 430,143.33" fill="#f9fafb"/><rect x="573.33" y="0" width="143.33" height="143.33" fill="#edf2f2"/><polygon points="573.33,0 716.6600000000001,0 573.33,143.33" fill="#f5f8f9"/><rect x="716.67" y="0" width="143.33" height="143.33" fill="#c7d5d9"/><polygon points="860,0 860,143.33 716.67,143.33" fill="#d0d7d7"/><rect x="860" y="0" width="143.33" height="143.33" fill="#cfd6d6"/><polygon points="860,0 1003.33,143.33 860,143.33" fill="#e0e8ea"/><rect x="1003.33" y="0" width="143.33" height="143.33" fill="#f7f9fb"/><polygon points="1003.33,0 1146.66,143.33 1003.33,143.33" fill="#e1e9ea"/><rect x="1146.67" y="0" width="143.33" height="143.33" fill="#e5eced"/><polygon points="1146.67,0 1290,143.33 1146.67,143.33" fill="#486464"/><rect x="1290" y="0" width="143.33" height="143.33" fill="#b8c2c3"/><polygon points="1290,0 1433.33,0 1433.33,143.33" fill="#8e9fa0"/><rect x="1433.33" y="0" width="143.33" height="143.33" fill="#a6b3b3"/><polygon points="1433.33,0 1576.6599999999999,143.33 1433.33,143.33" fill="#acc1c7"/><rect x="1576.67" y="0" width="143.33" height="143.33" fill="#f5f8f8"/><polygon points="1576.67,0 1720,0 1720,143.33" fill="#c5d4d6"/><rect x="1720" y="0" width="143.33" height="143.33" fill="#dce5e8"/><polygon points="1720,0 1863.33,0 1720,143.33" fill="#bbc6c6"/><rect x="1863.33" y="0" width="143.33" height="143.33" fill="#f5f8f8"/><polygon points="1863.33,0 2006.6599999999999,0 2006.6599999999999,143.33" fill="#c5d4de"/><rect x="2006.67" y="0" width="143.33" height="143.33" fill="#70949e"/><polygon points="2006.67,0 2150,143.33 2006.67,143.33" fill="#f9fafb"/><rect x="0" y="143.33" width="143.33" height="143.33" fill="#eff2f2"/><polygon points="143.33,143.33 143.33,286.66 0,286.66" fill="#90adb1"/><rect x="143.33" y="143.33" width="143.33" height="143.33" fill="#97a6a7"/><polygon points="143.33,143.33 286.66,143.33 143.33,286.66" fill="#889a9b"/><rect x="286.67" y="143.33" width="143.33" height="143.33" fill="#f8fafa"/><polygon points="286.67,143.33 430,286.66 286.67,286.66" fill="#e2e9ea"/><rect x="430" y="143.33" width="143.33" height="143.33" fill="#e9efef"/><polygon points="430,143.33 573.33,143.33 573.33,286.66" fill="#e5eced"/><rect x="573.33" y="143.33" width="143.33" height="143.33" fill="#f4f7f9"/><polygon points="716.6600000000001,143.33 716.6600000000001,286.66 573.33,286.66" fill="#e6eced"/><rect x="716.67" y="143.33" width="143.33" height="143.33" fill="#fdfdfd"/><polygon points="716.67,143.33 860,143.33 716.67,286.66" fill="#d4dfe2"/><rect x="860" y="143.33" width="143.33" height="143.33" fill="#f7f9f9"/><polygon points="860,143.33 1003.33,286.66 860,286.66" fill="#e8eeee"/><rect x="1003.33" y="143.33" width="143.33" height="143.33" fill="#e9eff2"/><polygon points="1003.33,143.33 1146.66,286.66 1003.33,286.66" fill="#f9fbfb"/><rect x="1146.67" y="143.33" width="143.33" height="143.33" fill="#dce5eb"/><polygon points="1146.67,143.33 1290,143.33 1290,286.66" fill="#618b91"/><rect x="1290" y="143.33" width="143.33" height="143.33" fill="#4e7d83"/><polygon points="1290,143.33 1433.33,143.33 1290,286.66" fill="#b5c8cb"/><rect x="1433.33" y="143.33" width="143.33" height="143.33" fill="#eef2f3"/><polygon points="1433.33,143.33 1576.6599999999999,143.33 1433.33,286.66" fill="#7396a0"/><rect x="1576.67" y="143.33" width="143.33" height="143.33" fill="#5f898f"/><polygon points="1576.67,143.33 1720,286.66 1576.67,286.66" fill="#687f7f"/><rect x="1720" y="143.33" width="143.33" height="143.33" fill="#e2eaef"/><polygon points="1720,143.33 1863.33,143.33 1720,286.66" fill="#e8eeef"/><rect x="1863.33" y="143.33" width="143.33" height="143.33" fill="#bfd0d4"/><polygon points="2006.6599999999999,143.33 2006.6599999999999,286.66 1863.33,286.66" fill="#f6f9fa"/><rect x="2006.67" y="143.33" width="143.33" height="143.33" fill="#768b8b"/><polygon points="2006.67,143.33 2150,286.66 2006.67,286.66" fill="#e4ebed"/><rect x="0" y="286.67" width="143.33" height="143.33" fill="#80a0a9"/><polygon points="143.33,286.67 143.33,430 0,430" fill="#f3f5f5"/><rect x="143.33" y="286.67" width="143.33" height="143.33" fill="#8fa0a0"/><polygon points="286.66,286.67 286.66,430 143.33,430" fill="#e0e7e8"/><rect x="286.67" y="286.67" width="143.33" height="143.33" fill="#9ab4b8"/><polygon points="286.67,286.67 430,286.67 430,430" fill="#f2f5f6"/><rect x="430" y="286.67" width="143.33" height="143.33" fill="#eff3f3"/><polygon points="430,286.67 573.33,286.67 573.33,430" fill="#eef2f3"/><rect x="573.33" y="286.67" width="143.33" height="143.33" fill="#7699a2"/><polygon points="573.33,286.67 716.6600000000001,286.67 716.6600000000001,430" fill="#e7edf2"/><rect x="716.67" y="286.67" width="143.33" height="143.33" fill="#b2c6cb"/><polygon points="716.67,286.67 860,286.67 860,430" fill="#e7eaea"/><rect x="860" y="286.67" width="143.33" height="143.33" fill="#f7f9f9"/><polygon points="860,286.67 1003.33,286.67 860,430" fill="#ecf1f1"/><rect x="1003.33" y="286.67" width="143.33" height="143.33" fill="#f8fafa"/><polygon points="1003.33,286.67 1146.66,286.67 1003.33,430" fill="#eaeff1"/><rect x="1146.67" y="286.67" width="143.33" height="143.33" fill="#ebf0f1"/><polygon points="1146.67,286.67 1290,430 1146.67,430" fill="#fcfdfd"/><rect x="1290" y="286.67" width="143.33" height="143.33" fill="#697f80"/><polygon points="1290,286.67 1433.33,286.67 1290,430" fill="#8d9e9f"/><rect x="1433.33" y="286.67" width="143.33" height="143.33" fill="#f2f5f6"/><polygon points="1576.6599999999999,286.67 1576.6599999999999,430 1433.33,430" fill="#cedbdd"/><rect x="1576.67" y="286.67" width="143.33" height="143.33" fill="#81a2a7"/><polygon points="1576.67,286.67 1720,430 1576.67,430" fill="#57828d"/><rect x="1720" y="286.67" width="143.33" height="143.33" fill="#7fa0a8"/><polygon points="1720,286.67 1863.33,286.67 1720,430" fill="#56818c"/><rect x="1863.33" y="286.67" width="143.33" height="143.33" fill="#e9eff0"/><polygon points="1863.33,286.67 2006.6599999999999,286.67 2006.6599999999999,430" fill="#d8e2e9"/><rect x="2006.67" y="286.67" width="143.33" height="143.33" fill="#c4d4de"/><polygon points="2006.67,286.67 2150,286.67 2006.67,430" fill="#f6f9f9"/></g></svg>